<?xml version="1.0" encoding="UTF-8" standalone="no"?>
<svg
   viewBox="0 0 256 256"
   version="1.1"
   id="svg1"
   sodipodi:docname="favicon.svg"
   xml:space="preserve"
   inkscape:version="1.3.2 (091e20ef0f, 2023-11-25, custom)"
   xmlns:inkscape="http://www.inkscape.org/namespaces/inkscape"
   xmlns:sodipodi="http://sodipodi.sourceforge.net/DTD/sodipodi-0.dtd"
   xmlns="http://www.w3.org/2000/svg"
   xmlns:svg="http://www.w3.org/2000/svg"><defs
     id="defs1" /><sodipodi:namedview
     id="namedview1"
     pagecolor="#ffffff"
     bordercolor="#000000"
     borderopacity="0.25"
     inkscape:showpageshadow="2"
     inkscape:pageopacity="0.0"
     inkscape:pagecheckerboard="0"
     inkscape:deskcolor="#d1d1d1"
     inkscape:zoom="2"
     inkscape:cx="108.75"
     inkscape:cy="124.75"
     inkscape:window-width="1920"
     inkscape:window-height="1011"
     inkscape:window-x="0"
     inkscape:window-y="36"
     inkscape:window-maximized="1"
     inkscape:current-layer="svg1"
     showguides="true"
     inkscape:lockguides="false"><sodipodi:guide
       position="128,128"
       orientation="1,0"
       id="guide125"
       inkscape:locked="false" /><sodipodi:guide
       position="128,134"
       orientation="0,-1"
       id="guide126"
       inkscape:locked="false" /><sodipodi:guide
       position="128,122"
       orientation="0,-1"
       id="guide127"
       inkscape:locked="false" /></sodipodi:namedview><ellipse
     style="fill:#b42249;fill-opacity:1;stroke-width:78.7589;stroke-linejoin:round;-inkscape-stroke:none"
     id="path1"
     cx="128"
     cy="128"
     rx="128"
     ry="104" /><path
     style="font-weight:bold;font-size:85px;line-height:0.9;font-family:'Droid Sans';-inkscape-font-specification:'Droid Sans Bold';text-align:center;letter-spacing:0px;text-anchor:middle;fill:#ffffff;stroke-width:37.7953;stroke-linejoin:round"
     d="m 176,134 -36,68 h -12 l 36,-68 z"
     id="path78"
     sodipodi:nodetypes="ccccc" /><path
     style="font-weight:bold;font-size:85px;line-height:0.9;font-family:'Droid Sans';-inkscape-font-specification:'Droid Sans Bold';text-align:center;letter-spacing:0px;text-anchor:middle;fill:#ffffff;stroke-width:37.7953;stroke-linejoin:round"
     d="m 126,134 36,68 h 12 l -36,-68 z"
     id="path9"
     sodipodi:nodetypes="ccccc" /><path
     style="font-weight:bold;font-size:85px;line-height:0.9;font-family:'Droid Sans';-inkscape-font-specification:'Droid Sans Bold';text-align:center;letter-spacing:0px;text-anchor:middle;fill:#ffffff;stroke-width:37.7953;stroke-linejoin:round"
     d="m 82,134 v 68 h 36 V 190 H 94 v -16 h 24 V 162 H 94 v -16 h 24 v -12 z"
     id="path8"
     sodipodi:nodetypes="ccccccccccccc" /><path
     style="font-weight:bold;font-size:85px;line-height:0.9;font-family:'Droid Sans';-inkscape-font-specification:'Droid Sans Bold';text-align:center;letter-spacing:0px;text-anchor:middle;fill:#ffffff;stroke-width:37.7953;stroke-linejoin:round"
     d="m 48,54 v 68 H 60 V 74 l 12,48 H 84 L 96,74 v 48 h 12 V 54 H 90 L 78,102 66,54 Z"
     id="path4"
     sodipodi:nodetypes="cccccccccccccc" /><path
     style="font-weight:bold;font-size:85px;line-height:0.9;font-family:'Droid Sans';-inkscape-font-specification:'Droid Sans Bold';text-align:center;letter-spacing:0px;text-anchor:middle;fill:#ffffff;stroke-width:37.7953;stroke-linejoin:round"
     d="m 116,54 v 12 L 132,66 v 56 h 12 V 66 h 16 V 54 Z"
     id="path5"
     sodipodi:nodetypes="ccccccccc" /><path
     id="path6-5"
     style="font-weight:bold;font-size:85px;line-height:0.9;font-family:'Droid Sans';-inkscape-font-specification:'Droid Sans Bold';text-align:center;letter-spacing:0px;text-anchor:middle;fill:#ffffff;stroke-width:37.7953;stroke-linejoin:round"
     d="m 168,54 v 68 h 12 V 94 h 4 l 12,28 h 12 L 196,94 h -12 12 c 5.63034,0 12,-6.256889 12,-11.887225 V 66 c 0,-5.729958 -6.54531,-12 -12.27527,-12 z m 12,12 h 16 v 16 h -16 z"
     sodipodi:nodetypes="cccccccccsssscccccc" /><path
     id="path6"
     style="font-weight:bold;font-size:85px;line-height:0.9;font-family:'Droid Sans';-inkscape-font-specification:'Droid Sans Bold';text-align:center;letter-spacing:0px;text-anchor:middle;fill:#ffffff;stroke-width:37.7953;stroke-linejoin:round"
     d="m 168,54 v 68 h 12 V 94 h 4 l 12,28 h 12 L 196,94 h 12 V 82 66 54 h -14 z m 12,12 h 16 v 16 h -16 z"
     sodipodi:nodetypes="ccccccccccccccccccc" /></svg>
